<?xml version="1.0" encoding="UTF-8" standalone="no"?>
<!-- Created with Inkscape (http://www.inkscape.org/) -->

<svg
   xmlns:dc="http://purl.org/dc/elements/1.1/"
   xmlns:cc="http://creativecommons.org/ns#"
   xmlns:rdf="http://www.w3.org/1999/02/22-rdf-syntax-ns#"
   xmlns:svg="http://www.w3.org/2000/svg"
   xmlns="http://www.w3.org/2000/svg"
   xmlns:sodipodi="http://sodipodi.sourceforge.net/DTD/sodipodi-0.dtd"
   xmlns:inkscape="http://www.inkscape.org/namespaces/inkscape"
   width="744.09448819"
   height="1052.3622047"
   id="svg2"
   version="1.1"
   inkscape:version="0.48.4 r9939"
   sodipodi:docname="New document 1">
  <defs
     id="defs4" />
  <sodipodi:namedview
     id="base"
     pagecolor="#ffffff"
     bordercolor="#666666"
     borderopacity="1.0"
     inkscape:pageopacity="0.0"
     inkscape:pageshadow="2"
     inkscape:zoom="2.1496046"
     inkscape:cx="297.44316"
     inkscape:cy="514.28571"
     inkscape:document-units="px"
     inkscape:current-layer="layer1"
     showgrid="false"
     inkscape:window-width="1920"
     inkscape:window-height="1021"
     inkscape:window-x="0"
     inkscape:window-y="27"
     inkscape:window-maximized="1" />
  <metadata
     id="metadata7">
    <rdf:RDF>
      <cc:Work
         rdf:about="">
        <dc:format>image/svg+xml</dc:format>
        <dc:type
           rdf:resource="http://purl.org/dc/dcmitype/StillImage" />
        <dc:title></dc:title>
      </cc:Work>
    </rdf:RDF>
  </metadata>
  <g
     inkscape:label="Layer 1"
     inkscape:groupmode="layer"
     id="layer1">
    <rect
       style="fill:#000000;fill-opacity:1;stroke:none"
       id="rect2985"
       width="424.26407"
       height="237.71814"
       x="52.102608"
       y="363.86346" />
    <path
       sodipodi:type="arc"
       style="fill:none;stroke:#ffffff;stroke-width:4;stroke-miterlimit:4;stroke-opacity:1;stroke-dasharray:none"
       id="path2987"
       sodipodi:cx="152.35359"
       sodipodi:cy="458.99725"
       sodipodi:rx="18.840673"
       sodipodi:ry="18.840673"
       d="m 171.19427,458.99725 a 18.840673,18.840673 0 1 1 -37.68135,0 18.840673,18.840673 0 1 1 37.68135,0 z"
       transform="matrix(1.4241146,0,0,1.4241146,-55.776554,-203.50629)" />
    <path
       sodipodi:type="arc"
       style="fill:none;stroke:#ffffff;stroke-width:4;stroke-miterlimit:4;stroke-opacity:1;stroke-dasharray:none"
       id="path2987-5"
       sodipodi:cx="152.35359"
       sodipodi:cy="458.99725"
       sodipodi:rx="18.840673"
       sodipodi:ry="18.840673"
       d="m 171.19427,458.99725 a 18.840673,18.840673 0 1 1 -37.68135,0 18.840673,18.840673 0 1 1 37.68135,0 z"
       transform="matrix(1.4241146,0,0,1.4241146,33.30961,-204.20408)" />
    <path
       style="fill:none;stroke:#ffffff;stroke-width:1px;stroke-linecap:butt;stroke-linejoin:miter;stroke-opacity:1"
       d="m 237.25293,455.04303 c 0,0 -3.12401,10.99233 6.34643,10.99233 9.47044,0 -5.84894,-3.15263 2.06978,-7.72451 7.91871,-4.57187 20.42631,0 20.42631,0 0,0 8.70662,-2.09777 2.28323,-8.52115"
       id="path3905"
       inkscape:connector-curvature="0" />
    <path
       sodipodi:type="arc"
       style="fill:none;stroke:#ffffff;stroke-width:4;stroke-miterlimit:4;stroke-opacity:1;stroke-dasharray:none"
       id="path2987-5-5"
       sodipodi:cx="152.35359"
       sodipodi:cy="458.99725"
       sodipodi:rx="18.840673"
       sodipodi:ry="18.840673"
       d="m 171.19427,458.99725 a 18.840673,18.840673 0 1 1 -37.68135,0 18.840673,18.840673 0 1 1 37.68135,0 z"
       transform="matrix(1.4241146,0,0,1.4241146,137.51482,-204.20408)" />
    <text
       xml:space="preserve"
       style="font-size:12px;font-style:normal;font-variant:normal;font-weight:normal;font-stretch:normal;line-height:125%;letter-spacing:0px;word-spacing:0px;fill:#000000;fill-opacity:1;stroke:none;font-family:Roboto;-inkscape-font-specification:Roboto"
       x="144.29309"
       y="454.42401"
       id="text3793"
       sodipodi:linespacing="125%"><tspan
         sodipodi:role="line"
         id="tspan3795"
         x="144.29309"
         y="454.42401"
         style="fill:#ffffff">50-50</tspan></text>
    <path
       style="fill:#ffffff;stroke:#ffffff;stroke-width:6.12750196;stroke-linecap:butt;stroke-linejoin:miter;stroke-miterlimit:4;stroke-opacity:1;stroke-dasharray:none"
       d="m 235.33329,451.658 20.68027,-17.32671"
       id="path3883"
       inkscape:connector-curvature="0" />
    <path
       transform="matrix(1.201471,0,0,1.201471,-74.87094,-76.618456)"
       sodipodi:type="arc"
       style="fill:#b3b3b3;fill-opacity:1;stroke:#cccccc;stroke-width:4;stroke-miterlimit:4;stroke-opacity:1;stroke-dasharray:none;stroke-dashoffset:0"
       id="path3863-1"
       sodipodi:cx="258.65222"
       sodipodi:cy="440.15659"
       sodipodi:rx="2.7912109"
       sodipodi:ry="2.7912109"
       d="m 261.44343,440.15659 a 2.7912109,2.7912109 0 1 1 -5.58242,0 2.7912109,2.7912109 0 1 1 5.58242,0 z" />
    <path
       transform="matrix(1.201471,0,0,1.201471,-54.749585,-95.621957)"
       sodipodi:type="arc"
       style="fill:#b3b3b3;fill-opacity:1;stroke:#cccccc;stroke-width:4;stroke-miterlimit:4;stroke-opacity:1;stroke-dasharray:none;stroke-dashoffset:0"
       id="path3863-1-4"
       sodipodi:cx="258.65222"
       sodipodi:cy="440.15659"
       sodipodi:rx="2.7912109"
       sodipodi:ry="2.7912109"
       d="m 261.44343,440.15659 a 2.7912109,2.7912109 0 1 1 -5.58242,0 2.7912109,2.7912109 0 1 1 5.58242,0 z" />
    <g
       id="g3915"
       transform="translate(0.69780461,3.553115)">
      <path
         transform="matrix(3.111111,0,0,3.111111,-743.2374,-932.63086)"
         d="m 354.48379,439.45877 c 0,1.15616 -0.93725,2.09341 -2.09341,2.09341 -1.15616,0 -2.09341,-0.93725 -2.09341,-2.09341 0,-1.15616 0.93725,-2.09341 2.09341,-2.09341 1.15616,0 2.09341,0.93725 2.09341,2.09341 z"
         sodipodi:ry="2.0934083"
         sodipodi:rx="2.0934083"
         sodipodi:cy="439.45877"
         sodipodi:cx="352.39038"
         id="path3907"
         style="fill:#ffffff;stroke:none"
         sodipodi:type="arc" />
      <path
         inkscape:connector-curvature="0"
         id="path3909"
         d="m 353.08819,439.22617 0,15.35166 -7.67583,7.67583"
         style="fill:none;stroke:#ffffff;stroke-width:3;stroke-linecap:butt;stroke-linejoin:miter;stroke-miterlimit:4;stroke-opacity:1;stroke-dasharray:none" />
      <path
         inkscape:connector-curvature="0"
         id="path3911"
         d="m 353.08819,454.11263 8.14103,8.14103"
         style="fill:none;stroke:#ffffff;stroke-width:3;stroke-linecap:butt;stroke-linejoin:miter;stroke-miterlimit:4;stroke-opacity:1;stroke-dasharray:none" />
      <path
         inkscape:connector-curvature="0"
         id="path3913"
         d="m 344.24935,445.739 19.07328,0"
         style="fill:none;stroke:#ffffff;stroke-width:3;stroke-linecap:butt;stroke-linejoin:miter;stroke-miterlimit:4;stroke-opacity:1;stroke-dasharray:none" />
    </g>
  </g>
</svg>
